G04 #@! TF.FileFunction,Soldermask,Top*
%FSLAX46Y46*%
G04 Gerber Fmt 4.6, Leading zero omitted, Abs format (unit mm)*
G04 Created by KiCad (PCBNEW 4.0.1-stable) date 8/1/2016 6:35:50 PM*
%MOMM*%
G01*
G04 APERTURE LIST*
%ADD10C,0.100000*%
%ADD11R,0.501600X1.101600*%
%ADD12R,2.641600X2.641600*%
%ADD13C,2.641600*%
%ADD14R,0.965200X0.889000*%
%ADD15R,0.889000X0.965200*%
%ADD16R,1.625600X1.625600*%
%ADD17C,1.625600*%
%ADD18R,1.244600X0.990600*%
%ADD19R,1.244600X0.952500*%
%ADD20R,3.606800X1.295400*%
%ADD21R,1.401600X1.401600*%
%ADD22C,1.401600*%
%ADD23C,1.752600*%
%ADD24R,1.752600X1.752600*%
G04 APERTURE END LIST*
D10*
D11*
X23641000Y15500000D03*
X22991000Y15500000D03*
X22341000Y15500000D03*
X21691000Y15500000D03*
X21041000Y15500000D03*
X20391000Y15500000D03*
X19741000Y15500000D03*
X19091000Y15500000D03*
X18441000Y15500000D03*
X17791000Y15500000D03*
X17141000Y15500000D03*
X16491000Y15500000D03*
X16491000Y9900000D03*
X17141000Y9900000D03*
X17791000Y9900000D03*
X18441000Y9900000D03*
X19091000Y9900000D03*
X19741000Y9900000D03*
X20391000Y9900000D03*
X21041000Y9900000D03*
X21691000Y9900000D03*
X22341000Y9900000D03*
X22991000Y9900000D03*
X23641000Y9900000D03*
D12*
X41529000Y19177000D03*
D13*
X41529000Y14097000D03*
X41529000Y9017000D03*
X41529000Y3937000D03*
D14*
X29464000Y8636000D03*
X29464000Y10160000D03*
D15*
X12446000Y3810000D03*
X13970000Y3810000D03*
X16764000Y3810000D03*
X15240000Y3810000D03*
D14*
X9652000Y13208000D03*
X9652000Y11684000D03*
X9652000Y16002000D03*
X9652000Y14478000D03*
D15*
X21336000Y19050000D03*
X19812000Y19050000D03*
D14*
X26924000Y17907000D03*
X26924000Y16383000D03*
D15*
X21336000Y17272000D03*
X19812000Y17272000D03*
D14*
X14986000Y13208000D03*
X14986000Y11684000D03*
X13208000Y13208000D03*
X13208000Y11684000D03*
D15*
X6604000Y18034000D03*
X5080000Y18034000D03*
X6604000Y19558000D03*
X5080000Y19558000D03*
D16*
X6477000Y12827000D03*
D17*
X6477000Y10287000D03*
X6477000Y7747000D03*
X6477000Y5207000D03*
D18*
X38735000Y3937000D03*
D19*
X36449000Y2984500D03*
D18*
X36449000Y4889500D03*
D14*
X34544000Y3175000D03*
X34544000Y4699000D03*
X27686000Y10160000D03*
X27686000Y8636000D03*
D15*
X13462000Y19304000D03*
X14986000Y19304000D03*
X13462000Y17526000D03*
X14986000Y17526000D03*
D14*
X11430000Y11684000D03*
X11430000Y13208000D03*
X11430000Y14478000D03*
X11430000Y16002000D03*
X25654000Y13208000D03*
X25654000Y11684000D03*
D20*
X17780000Y6858000D03*
X12192000Y6858000D03*
D21*
X28829000Y18161000D03*
D22*
X28829000Y16161000D03*
D23*
X31877000Y21717000D03*
X29337000Y21717000D03*
X26797000Y21717000D03*
X24257000Y21717000D03*
X21717000Y21717000D03*
X19177000Y21717000D03*
X16637000Y21717000D03*
X14097000Y21717000D03*
X11557000Y21717000D03*
X9017000Y21717000D03*
X6477000Y21717000D03*
X3937000Y21717000D03*
X1397000Y21717000D03*
X1397000Y1397000D03*
X3937000Y1397000D03*
X6477000Y1397000D03*
X9017000Y1397000D03*
X11557000Y1397000D03*
X14097000Y1397000D03*
X16637000Y1397000D03*
X19177000Y1397000D03*
X21717000Y1397000D03*
X24257000Y1397000D03*
X26797000Y1397000D03*
X29337000Y1397000D03*
X31877000Y1397000D03*
D16*
X1397000Y17907000D03*
D17*
X1397000Y15367000D03*
X1397000Y12827000D03*
X1397000Y10287000D03*
X1397000Y7747000D03*
X1397000Y5207000D03*
D24*
X31877000Y14097000D03*
D23*
X31877000Y11557000D03*
X31877000Y9017000D03*
D14*
X8890000Y3302000D03*
X8890000Y4826000D03*
D15*
X4318000Y3556000D03*
X2794000Y3556000D03*
M02*
