M48
;DRILL file {KiCad 4.0.1-stable} date 8/1/2016 6:35:52 PM
;FORMAT={-:-/ absolute / inch / decimal}
FMAT,2
INCH,TZ
T1C0.016
T2C0.020
T3C0.031
T4C0.035
T5C0.040
T6C0.051
%
G90
G05
M72
T1
X0.16Y0.2
X0.17Y0.58
X0.25Y0.61
X0.31Y0.58
X0.34Y0.7
X0.36Y0.36
X0.39Y0.33
X0.42Y0.42
X0.45Y0.39
X0.5Y0.74
X0.51Y0.81
X0.59Y0.59
X0.59Y0.39
X0.62Y0.62
X0.66Y0.56
X0.71Y0.56
X0.76Y0.55
X0.76Y0.44
X0.81Y0.44
X0.85Y0.44
X0.88Y0.24
X0.95Y0.31
X1.32Y0.14
T2
X0.78Y0.2
X0.82Y0.54
X0.87Y0.54
T3
X1.135Y0.715
X1.135Y0.6363
T4
X0.055Y0.705
X0.055Y0.605
X0.055Y0.505
X0.055Y0.405
X0.055Y0.305
X0.055Y0.205
X0.255Y0.505
X0.255Y0.405
X0.255Y0.305
X0.255Y0.205
T5
X0.055Y0.855
X0.055Y0.055
X0.155Y0.855
X0.155Y0.055
X0.255Y0.855
X0.255Y0.055
X0.355Y0.855
X0.355Y0.055
X0.455Y0.855
X0.455Y0.055
X0.555Y0.855
X0.555Y0.055
X0.655Y0.855
X0.655Y0.055
X0.755Y0.855
X0.755Y0.055
X0.855Y0.855
X0.855Y0.055
X0.955Y0.855
X0.955Y0.055
X1.055Y0.855
X1.055Y0.055
X1.155Y0.855
X1.155Y0.055
X1.255Y0.855
X1.255Y0.555
X1.255Y0.455
X1.255Y0.355
X1.255Y0.055
T6
X1.635Y0.755
X1.635Y0.555
X1.635Y0.355
X1.635Y0.155
T0
M30
