G04 #@! TF.FileFunction,Legend,Top*
%FSLAX46Y46*%
G04 Gerber Fmt 4.6, Leading zero omitted, Abs format (unit mm)*
G04 Created by KiCad (PCBNEW 4.0.1-stable) date 8/1/2016 6:35:50 PM*
%MOMM*%
G01*
G04 APERTURE LIST*
%ADD10C,0.100000*%
%ADD11C,0.177800*%
%ADD12C,0.200000*%
%ADD13C,0.190500*%
%ADD14C,0.150000*%
%ADD15C,0.203200*%
G04 APERTURE END LIST*
D10*
D11*
X33092571Y9446381D02*
X33346571Y8430381D01*
X33600571Y9446381D01*
X33854572Y8430381D02*
X33854572Y9107714D01*
X33854572Y8914190D02*
X33890857Y9010952D01*
X33927143Y9059333D01*
X33999714Y9107714D01*
X34072286Y9107714D01*
X34616571Y8478762D02*
X34544000Y8430381D01*
X34398857Y8430381D01*
X34326286Y8478762D01*
X34290000Y8575524D01*
X34290000Y8962571D01*
X34326286Y9059333D01*
X34398857Y9107714D01*
X34544000Y9107714D01*
X34616571Y9059333D01*
X34652857Y8962571D01*
X34652857Y8865810D01*
X34290000Y8769048D01*
X34870571Y9107714D02*
X35160857Y9107714D01*
X34979429Y8430381D02*
X34979429Y9301238D01*
X35015714Y9398000D01*
X35088286Y9446381D01*
X35160857Y9446381D01*
X33092571Y11986381D02*
X33346571Y10970381D01*
X33600571Y11986381D01*
X34181143Y11018762D02*
X34108572Y10970381D01*
X33963429Y10970381D01*
X33890857Y11018762D01*
X33854572Y11067143D01*
X33818286Y11163905D01*
X33818286Y11454190D01*
X33854572Y11550952D01*
X33890857Y11599333D01*
X33963429Y11647714D01*
X34108572Y11647714D01*
X34181143Y11599333D01*
X34834286Y11018762D02*
X34761715Y10970381D01*
X34616572Y10970381D01*
X34544000Y11018762D01*
X34507715Y11067143D01*
X34471429Y11163905D01*
X34471429Y11454190D01*
X34507715Y11550952D01*
X34544000Y11599333D01*
X34616572Y11647714D01*
X34761715Y11647714D01*
X34834286Y11599333D01*
X33600571Y14478000D02*
X33528000Y14526381D01*
X33419143Y14526381D01*
X33310286Y14478000D01*
X33237714Y14381238D01*
X33201429Y14284476D01*
X33165143Y14090952D01*
X33165143Y13945810D01*
X33201429Y13752286D01*
X33237714Y13655524D01*
X33310286Y13558762D01*
X33419143Y13510381D01*
X33491714Y13510381D01*
X33600571Y13558762D01*
X33636857Y13607143D01*
X33636857Y13945810D01*
X33491714Y13945810D01*
X33963429Y13510381D02*
X33963429Y14526381D01*
X34398857Y13510381D01*
X34398857Y14526381D01*
X34761715Y13510381D02*
X34761715Y14526381D01*
X34943143Y14526381D01*
X35052000Y14478000D01*
X35124572Y14381238D01*
X35160857Y14284476D01*
X35197143Y14090952D01*
X35197143Y13945810D01*
X35160857Y13752286D01*
X35124572Y13655524D01*
X35052000Y13558762D01*
X34943143Y13510381D01*
X34761715Y13510381D01*
X30117143Y17864667D02*
X30480000Y17864667D01*
X30044571Y17574381D02*
X30298571Y18590381D01*
X30552571Y17574381D01*
X30806572Y17574381D02*
X30806572Y18590381D01*
X31242000Y17574381D01*
X31242000Y18590381D01*
X31568572Y17864667D02*
X31931429Y17864667D01*
X31496000Y17574381D02*
X31750000Y18590381D01*
X32004000Y17574381D01*
X32620858Y17574381D02*
X32258001Y17574381D01*
X32258001Y18590381D01*
X33020000Y18590381D02*
X33165143Y18590381D01*
X33237715Y18542000D01*
X33310286Y18445238D01*
X33346572Y18251714D01*
X33346572Y17913048D01*
X33310286Y17719524D01*
X33237715Y17622762D01*
X33165143Y17574381D01*
X33020000Y17574381D01*
X32947429Y17622762D01*
X32874858Y17719524D01*
X32838572Y17913048D01*
X32838572Y18251714D01*
X32874858Y18445238D01*
X32947429Y18542000D01*
X33020000Y18590381D01*
X34072286Y18542000D02*
X33999715Y18590381D01*
X33890858Y18590381D01*
X33782001Y18542000D01*
X33709429Y18445238D01*
X33673144Y18348476D01*
X33636858Y18154952D01*
X33636858Y18009810D01*
X33673144Y17816286D01*
X33709429Y17719524D01*
X33782001Y17622762D01*
X33890858Y17574381D01*
X33963429Y17574381D01*
X34072286Y17622762D01*
X34108572Y17671143D01*
X34108572Y18009810D01*
X33963429Y18009810D01*
D12*
X33020000Y19050000D02*
X33020000Y19558000D01*
X30988000Y19050000D02*
X33020000Y19050000D01*
X30988000Y19558000D02*
X30988000Y19050000D01*
D11*
X8454571Y20622381D02*
X8890000Y20622381D01*
X8672286Y19606381D02*
X8672286Y20622381D01*
X9071428Y20622381D02*
X9579428Y19606381D01*
X9579428Y20622381D02*
X9071428Y19606381D01*
D12*
X12446000Y19304000D02*
X12446000Y19812000D01*
X8128000Y19304000D02*
X12446000Y19304000D01*
X8128000Y19812000D02*
X8128000Y19304000D01*
D11*
X31387143Y19642667D02*
X31750000Y19642667D01*
X31314571Y19352381D02*
X31568571Y20368381D01*
X31822571Y19352381D01*
X32221714Y20368381D02*
X32366857Y20368381D01*
X32439429Y20320000D01*
X32512000Y20223238D01*
X32548286Y20029714D01*
X32548286Y19691048D01*
X32512000Y19497524D01*
X32439429Y19400762D01*
X32366857Y19352381D01*
X32221714Y19352381D01*
X32149143Y19400762D01*
X32076572Y19497524D01*
X32040286Y19691048D01*
X32040286Y20029714D01*
X32076572Y20223238D01*
X32149143Y20320000D01*
X32221714Y20368381D01*
X11284857Y19606381D02*
X11030857Y20090190D01*
X10849429Y19606381D02*
X10849429Y20622381D01*
X11139714Y20622381D01*
X11212286Y20574000D01*
X11248571Y20525619D01*
X11284857Y20428857D01*
X11284857Y20283714D01*
X11248571Y20186952D01*
X11212286Y20138571D01*
X11139714Y20090190D01*
X10849429Y20090190D01*
X11538857Y20622381D02*
X12046857Y19606381D01*
X12046857Y20622381D02*
X11538857Y19606381D01*
X8055429Y18844381D02*
X8055429Y18021905D01*
X8091714Y17925143D01*
X8128000Y17876762D01*
X8200571Y17828381D01*
X8345714Y17828381D01*
X8418286Y17876762D01*
X8454571Y17925143D01*
X8490857Y18021905D01*
X8490857Y18844381D01*
X8817429Y18118667D02*
X9180286Y18118667D01*
X8744857Y17828381D02*
X8998857Y18844381D01*
X9252857Y17828381D01*
X9942286Y17828381D02*
X9688286Y18312190D01*
X9506858Y17828381D02*
X9506858Y18844381D01*
X9797143Y18844381D01*
X9869715Y18796000D01*
X9906000Y18747619D01*
X9942286Y18650857D01*
X9942286Y18505714D01*
X9906000Y18408952D01*
X9869715Y18360571D01*
X9797143Y18312190D01*
X9506858Y18312190D01*
X10160000Y18844381D02*
X10595429Y18844381D01*
X10377715Y17828381D02*
X10377715Y18844381D01*
X2612571Y15796381D02*
X3048000Y15796381D01*
X2830286Y14780381D02*
X2830286Y15796381D01*
X3229428Y15796381D02*
X3737428Y14780381D01*
X3737428Y15796381D02*
X3229428Y14780381D01*
X3156857Y12240381D02*
X2902857Y12724190D01*
X2721429Y12240381D02*
X2721429Y13256381D01*
X3011714Y13256381D01*
X3084286Y13208000D01*
X3120571Y13159619D01*
X3156857Y13062857D01*
X3156857Y12917714D01*
X3120571Y12820952D01*
X3084286Y12772571D01*
X3011714Y12724190D01*
X2721429Y12724190D01*
X3410857Y13256381D02*
X3918857Y12240381D01*
X3918857Y13256381D02*
X3410857Y12240381D01*
X2612571Y10716381D02*
X2866571Y9700381D01*
X3120571Y10716381D01*
X3701143Y9748762D02*
X3628572Y9700381D01*
X3483429Y9700381D01*
X3410857Y9748762D01*
X3374572Y9797143D01*
X3338286Y9893905D01*
X3338286Y10184190D01*
X3374572Y10280952D01*
X3410857Y10329333D01*
X3483429Y10377714D01*
X3628572Y10377714D01*
X3701143Y10329333D01*
X4354286Y9748762D02*
X4281715Y9700381D01*
X4136572Y9700381D01*
X4064000Y9748762D01*
X4027715Y9797143D01*
X3991429Y9893905D01*
X3991429Y10184190D01*
X4027715Y10280952D01*
X4064000Y10329333D01*
X4136572Y10377714D01*
X4281715Y10377714D01*
X4354286Y10329333D01*
X3120571Y5588000D02*
X3048000Y5636381D01*
X2939143Y5636381D01*
X2830286Y5588000D01*
X2757714Y5491238D01*
X2721429Y5394476D01*
X2685143Y5200952D01*
X2685143Y5055810D01*
X2721429Y4862286D01*
X2757714Y4765524D01*
X2830286Y4668762D01*
X2939143Y4620381D01*
X3011714Y4620381D01*
X3120571Y4668762D01*
X3156857Y4717143D01*
X3156857Y5055810D01*
X3011714Y5055810D01*
X3483429Y4620381D02*
X3483429Y5636381D01*
X3918857Y4620381D01*
X3918857Y5636381D01*
X4281715Y4620381D02*
X4281715Y5636381D01*
X4463143Y5636381D01*
X4572000Y5588000D01*
X4644572Y5491238D01*
X4680857Y5394476D01*
X4717143Y5200952D01*
X4717143Y5055810D01*
X4680857Y4862286D01*
X4644572Y4765524D01*
X4572000Y4668762D01*
X4463143Y4620381D01*
X4281715Y4620381D01*
D13*
X23343810Y7462762D02*
X23488953Y7414381D01*
X23730857Y7414381D01*
X23827619Y7462762D01*
X23876000Y7511143D01*
X23924381Y7607905D01*
X23924381Y7704667D01*
X23876000Y7801429D01*
X23827619Y7849810D01*
X23730857Y7898190D01*
X23537334Y7946571D01*
X23440572Y7994952D01*
X23392191Y8043333D01*
X23343810Y8140095D01*
X23343810Y8236857D01*
X23392191Y8333619D01*
X23440572Y8382000D01*
X23537334Y8430381D01*
X23779238Y8430381D01*
X23924381Y8382000D01*
X24359810Y7414381D02*
X24359810Y8430381D01*
X24746857Y8430381D01*
X24843619Y8382000D01*
X24892000Y8333619D01*
X24940381Y8236857D01*
X24940381Y8091714D01*
X24892000Y7994952D01*
X24843619Y7946571D01*
X24746857Y7898190D01*
X24359810Y7898190D01*
X25375810Y7414381D02*
X25375810Y8430381D01*
D12*
X32766000Y6858000D02*
X32766000Y6350000D01*
X21082000Y6858000D02*
X32766000Y6858000D01*
X21082000Y6350000D02*
X21082000Y6858000D01*
D13*
X32415238Y2733524D02*
X32463619Y2878667D01*
X32463619Y3120571D01*
X32415238Y3217333D01*
X32366857Y3265714D01*
X32270095Y3314095D01*
X32173333Y3314095D01*
X32076571Y3265714D01*
X32028190Y3217333D01*
X31979810Y3120571D01*
X31931429Y2927048D01*
X31883048Y2830286D01*
X31834667Y2781905D01*
X31737905Y2733524D01*
X31641143Y2733524D01*
X31544381Y2781905D01*
X31496000Y2830286D01*
X31447619Y2927048D01*
X31447619Y3168952D01*
X31496000Y3314095D01*
X32366857Y4330095D02*
X32415238Y4281714D01*
X32463619Y4136571D01*
X32463619Y4039809D01*
X32415238Y3894667D01*
X32318476Y3797905D01*
X32221714Y3749524D01*
X32028190Y3701143D01*
X31883048Y3701143D01*
X31689524Y3749524D01*
X31592762Y3797905D01*
X31496000Y3894667D01*
X31447619Y4039809D01*
X31447619Y4136571D01*
X31496000Y4281714D01*
X31544381Y4330095D01*
X32463619Y5249333D02*
X32463619Y4765524D01*
X31447619Y4765524D01*
X32463619Y5588000D02*
X31447619Y5588000D01*
X32463619Y6168571D02*
X31883048Y5733143D01*
X31447619Y6168571D02*
X32028190Y5588000D01*
X29923619Y2781905D02*
X28907619Y2781905D01*
X29633333Y3120571D01*
X28907619Y3459238D01*
X29923619Y3459238D01*
X29923619Y3943048D02*
X28907619Y3943048D01*
X29875238Y4378477D02*
X29923619Y4523620D01*
X29923619Y4765524D01*
X29875238Y4862286D01*
X29826857Y4910667D01*
X29730095Y4959048D01*
X29633333Y4959048D01*
X29536571Y4910667D01*
X29488190Y4862286D01*
X29439810Y4765524D01*
X29391429Y4572001D01*
X29343048Y4475239D01*
X29294667Y4426858D01*
X29197905Y4378477D01*
X29101143Y4378477D01*
X29004381Y4426858D01*
X28956000Y4475239D01*
X28907619Y4572001D01*
X28907619Y4813905D01*
X28956000Y4959048D01*
X28907619Y5588001D02*
X28907619Y5781524D01*
X28956000Y5878286D01*
X29052762Y5975048D01*
X29246286Y6023429D01*
X29584952Y6023429D01*
X29778476Y5975048D01*
X29875238Y5878286D01*
X29923619Y5781524D01*
X29923619Y5588001D01*
X29875238Y5491239D01*
X29778476Y5394477D01*
X29584952Y5346096D01*
X29246286Y5346096D01*
X29052762Y5394477D01*
X28956000Y5491239D01*
X28907619Y5588001D01*
X27383619Y2781905D02*
X26367619Y2781905D01*
X27093333Y3120571D01*
X26367619Y3459238D01*
X27383619Y3459238D01*
X26367619Y4136572D02*
X26367619Y4330095D01*
X26416000Y4426857D01*
X26512762Y4523619D01*
X26706286Y4572000D01*
X27044952Y4572000D01*
X27238476Y4523619D01*
X27335238Y4426857D01*
X27383619Y4330095D01*
X27383619Y4136572D01*
X27335238Y4039810D01*
X27238476Y3943048D01*
X27044952Y3894667D01*
X26706286Y3894667D01*
X26512762Y3943048D01*
X26416000Y4039810D01*
X26367619Y4136572D01*
X27335238Y4959048D02*
X27383619Y5104191D01*
X27383619Y5346095D01*
X27335238Y5442857D01*
X27286857Y5491238D01*
X27190095Y5539619D01*
X27093333Y5539619D01*
X26996571Y5491238D01*
X26948190Y5442857D01*
X26899810Y5346095D01*
X26851429Y5152572D01*
X26803048Y5055810D01*
X26754667Y5007429D01*
X26657905Y4959048D01*
X26561143Y4959048D01*
X26464381Y5007429D01*
X26416000Y5055810D01*
X26367619Y5152572D01*
X26367619Y5394476D01*
X26416000Y5539619D01*
X27383619Y5975048D02*
X26367619Y5975048D01*
X24795238Y2733524D02*
X24843619Y2878667D01*
X24843619Y3120571D01*
X24795238Y3217333D01*
X24746857Y3265714D01*
X24650095Y3314095D01*
X24553333Y3314095D01*
X24456571Y3265714D01*
X24408190Y3217333D01*
X24359810Y3120571D01*
X24311429Y2927048D01*
X24263048Y2830286D01*
X24214667Y2781905D01*
X24117905Y2733524D01*
X24021143Y2733524D01*
X23924381Y2781905D01*
X23876000Y2830286D01*
X23827619Y2927048D01*
X23827619Y3168952D01*
X23876000Y3314095D01*
X24795238Y3701143D02*
X24843619Y3846286D01*
X24843619Y4088190D01*
X24795238Y4184952D01*
X24746857Y4233333D01*
X24650095Y4281714D01*
X24553333Y4281714D01*
X24456571Y4233333D01*
X24408190Y4184952D01*
X24359810Y4088190D01*
X24311429Y3894667D01*
X24263048Y3797905D01*
X24214667Y3749524D01*
X24117905Y3701143D01*
X24021143Y3701143D01*
X23924381Y3749524D01*
X23876000Y3797905D01*
X23827619Y3894667D01*
X23827619Y4136571D01*
X23876000Y4281714D01*
X22255238Y2685143D02*
X22303619Y2794000D01*
X22303619Y2975429D01*
X22255238Y3048000D01*
X22206857Y3084286D01*
X22110095Y3120571D01*
X22013333Y3120571D01*
X21916571Y3084286D01*
X21868190Y3048000D01*
X21819810Y2975429D01*
X21771429Y2830286D01*
X21723048Y2757714D01*
X21674667Y2721429D01*
X21577905Y2685143D01*
X21481143Y2685143D01*
X21384381Y2721429D01*
X21336000Y2757714D01*
X21287619Y2830286D01*
X21287619Y3011714D01*
X21336000Y3120571D01*
X21336000Y3846285D02*
X21287619Y3773714D01*
X21287619Y3664857D01*
X21336000Y3556000D01*
X21432762Y3483428D01*
X21529524Y3447143D01*
X21723048Y3410857D01*
X21868190Y3410857D01*
X22061714Y3447143D01*
X22158476Y3483428D01*
X22255238Y3556000D01*
X22303619Y3664857D01*
X22303619Y3737428D01*
X22255238Y3846285D01*
X22206857Y3882571D01*
X21868190Y3882571D01*
X21868190Y3737428D01*
X22303619Y4209143D02*
X21287619Y4209143D01*
X22303619Y4644571D01*
X21287619Y4644571D01*
D14*
X24066000Y14700000D02*
X24066000Y16200000D01*
X23566000Y12700000D02*
G75*
G03X24066000Y12200000I500000J0D01*
G01*
X24066000Y13200000D02*
G75*
G03X23566000Y12700000I0J-500000D01*
G01*
X24066000Y14700000D02*
X24066000Y10700000D01*
X24066000Y10700000D02*
X16066000Y10700000D01*
X16066000Y10700000D02*
X16066000Y14700000D01*
X16066000Y14700000D02*
X24066000Y14700000D01*
X30099000Y8382000D02*
X30099000Y10414000D01*
X28829000Y8382000D02*
X28829000Y10414000D01*
X12192000Y3175000D02*
X14224000Y3175000D01*
X12192000Y4445000D02*
X14224000Y4445000D01*
X17018000Y4445000D02*
X14986000Y4445000D01*
X17018000Y3175000D02*
X14986000Y3175000D01*
X9017000Y13462000D02*
X9017000Y11430000D01*
X10287000Y13462000D02*
X10287000Y11430000D01*
X9017000Y16256000D02*
X9017000Y14224000D01*
X10287000Y16256000D02*
X10287000Y14224000D01*
X21590000Y19685000D02*
X19558000Y19685000D01*
X21590000Y18415000D02*
X19558000Y18415000D01*
X26289000Y18161000D02*
X26289000Y16129000D01*
X27559000Y18161000D02*
X27559000Y16129000D01*
X21590000Y17907000D02*
X19558000Y17907000D01*
X21590000Y16637000D02*
X19558000Y16637000D01*
X14351000Y13462000D02*
X14351000Y11430000D01*
X15621000Y13462000D02*
X15621000Y11430000D01*
X12573000Y13462000D02*
X12573000Y11430000D01*
X13843000Y13462000D02*
X13843000Y11430000D01*
X6858000Y18669000D02*
X4826000Y18669000D01*
X6858000Y17399000D02*
X4826000Y17399000D01*
X6858000Y20193000D02*
X4826000Y20193000D01*
X6858000Y18923000D02*
X4826000Y18923000D01*
X5207000Y11557000D02*
X5207000Y3937000D01*
X5207000Y3937000D02*
X7747000Y3937000D01*
X7747000Y3937000D02*
X7747000Y11557000D01*
X7747000Y14097000D02*
X7747000Y11557000D01*
X7747000Y11557000D02*
X5207000Y11557000D01*
X5207000Y11557000D02*
X5207000Y14097000D01*
X7747000Y14097000D02*
X5207000Y14097000D01*
X37400550Y5113020D02*
G75*
G03X37400550Y5113020I-159070J0D01*
G01*
X38100000Y2667000D02*
X37084000Y2667000D01*
X38100000Y5270500D02*
X37084000Y5270500D01*
X37084000Y2667000D02*
X37084000Y5270500D01*
X38100000Y5270500D02*
X38100000Y2667000D01*
X35179000Y2921000D02*
X35179000Y4953000D01*
X33909000Y2921000D02*
X33909000Y4953000D01*
X27051000Y10414000D02*
X27051000Y8382000D01*
X28321000Y10414000D02*
X28321000Y8382000D01*
X13208000Y18669000D02*
X15240000Y18669000D01*
X13208000Y19939000D02*
X15240000Y19939000D01*
X13208000Y16891000D02*
X15240000Y16891000D01*
X13208000Y18161000D02*
X15240000Y18161000D01*
X12065000Y11430000D02*
X12065000Y13462000D01*
X10795000Y11430000D02*
X10795000Y13462000D01*
X12065000Y14224000D02*
X12065000Y16256000D01*
X10795000Y14224000D02*
X10795000Y16256000D01*
X25019000Y13462000D02*
X25019000Y11430000D01*
X26289000Y13462000D02*
X26289000Y11430000D01*
X11430000Y7620000D02*
X11430000Y8890000D01*
X11430000Y8890000D02*
X18542000Y8890000D01*
X18542000Y8890000D02*
X18542000Y7620000D01*
X18542000Y6096000D02*
X18542000Y4826000D01*
X18542000Y4826000D02*
X11430000Y4826000D01*
X11430000Y4826000D02*
X11430000Y6096000D01*
X9525000Y3048000D02*
X9525000Y5080000D01*
X8255000Y3048000D02*
X8255000Y5080000D01*
X4572000Y4191000D02*
X2540000Y4191000D01*
X4572000Y2921000D02*
X2540000Y2921000D01*
X24638095Y15279619D02*
X24638095Y14470095D01*
X24685714Y14374857D01*
X24733333Y14327238D01*
X24828571Y14279619D01*
X25019048Y14279619D01*
X25114286Y14327238D01*
X25161905Y14374857D01*
X25209524Y14470095D01*
X25209524Y15279619D01*
X26209524Y14279619D02*
X25638095Y14279619D01*
X25923809Y14279619D02*
X25923809Y15279619D01*
X25828571Y15136762D01*
X25733333Y15041524D01*
X25638095Y14993905D01*
D15*
X29315834Y11067143D02*
X29273500Y11018762D01*
X29146500Y10970381D01*
X29061834Y10970381D01*
X28934834Y11018762D01*
X28850167Y11115524D01*
X28807834Y11212286D01*
X28765500Y11405810D01*
X28765500Y11550952D01*
X28807834Y11744476D01*
X28850167Y11841238D01*
X28934834Y11938000D01*
X29061834Y11986381D01*
X29146500Y11986381D01*
X29273500Y11938000D01*
X29315834Y11889619D01*
X30162500Y10970381D02*
X29654500Y10970381D01*
X29908500Y10970381D02*
X29908500Y11986381D01*
X29823834Y11841238D01*
X29739167Y11744476D01*
X29654500Y11696095D01*
X10773834Y3447143D02*
X10731500Y3398762D01*
X10604500Y3350381D01*
X10519834Y3350381D01*
X10392834Y3398762D01*
X10308167Y3495524D01*
X10265834Y3592286D01*
X10223500Y3785810D01*
X10223500Y3930952D01*
X10265834Y4124476D01*
X10308167Y4221238D01*
X10392834Y4318000D01*
X10519834Y4366381D01*
X10604500Y4366381D01*
X10731500Y4318000D01*
X10773834Y4269619D01*
X11070167Y4366381D02*
X11620500Y4366381D01*
X11324167Y3979333D01*
X11451167Y3979333D01*
X11535834Y3930952D01*
X11578167Y3882571D01*
X11620500Y3785810D01*
X11620500Y3543905D01*
X11578167Y3447143D01*
X11535834Y3398762D01*
X11451167Y3350381D01*
X11197167Y3350381D01*
X11112500Y3398762D01*
X11070167Y3447143D01*
X18139834Y3447143D02*
X18097500Y3398762D01*
X17970500Y3350381D01*
X17885834Y3350381D01*
X17758834Y3398762D01*
X17674167Y3495524D01*
X17631834Y3592286D01*
X17589500Y3785810D01*
X17589500Y3930952D01*
X17631834Y4124476D01*
X17674167Y4221238D01*
X17758834Y4318000D01*
X17885834Y4366381D01*
X17970500Y4366381D01*
X18097500Y4318000D01*
X18139834Y4269619D01*
X18901834Y4027714D02*
X18901834Y3350381D01*
X18690167Y4414762D02*
X18478500Y3689048D01*
X19028834Y3689048D01*
X9503834Y10051143D02*
X9461500Y10002762D01*
X9334500Y9954381D01*
X9249834Y9954381D01*
X9122834Y10002762D01*
X9038167Y10099524D01*
X8995834Y10196286D01*
X8953500Y10389810D01*
X8953500Y10534952D01*
X8995834Y10728476D01*
X9038167Y10825238D01*
X9122834Y10922000D01*
X9249834Y10970381D01*
X9334500Y10970381D01*
X9461500Y10922000D01*
X9503834Y10873619D01*
X10308167Y10970381D02*
X9884834Y10970381D01*
X9842500Y10486571D01*
X9884834Y10534952D01*
X9969500Y10583333D01*
X10181167Y10583333D01*
X10265834Y10534952D01*
X10308167Y10486571D01*
X10350500Y10389810D01*
X10350500Y10147905D01*
X10308167Y10051143D01*
X10265834Y10002762D01*
X10181167Y9954381D01*
X9969500Y9954381D01*
X9884834Y10002762D01*
X9842500Y10051143D01*
X7725834Y15639143D02*
X7683500Y15590762D01*
X7556500Y15542381D01*
X7471834Y15542381D01*
X7344834Y15590762D01*
X7260167Y15687524D01*
X7217834Y15784286D01*
X7175500Y15977810D01*
X7175500Y16122952D01*
X7217834Y16316476D01*
X7260167Y16413238D01*
X7344834Y16510000D01*
X7471834Y16558381D01*
X7556500Y16558381D01*
X7683500Y16510000D01*
X7725834Y16461619D01*
X8487834Y16558381D02*
X8318500Y16558381D01*
X8233834Y16510000D01*
X8191500Y16461619D01*
X8106834Y16316476D01*
X8064500Y16122952D01*
X8064500Y15735905D01*
X8106834Y15639143D01*
X8149167Y15590762D01*
X8233834Y15542381D01*
X8403167Y15542381D01*
X8487834Y15590762D01*
X8530167Y15639143D01*
X8572500Y15735905D01*
X8572500Y15977810D01*
X8530167Y16074571D01*
X8487834Y16122952D01*
X8403167Y16171333D01*
X8233834Y16171333D01*
X8149167Y16122952D01*
X8106834Y16074571D01*
X8064500Y15977810D01*
X22711834Y18687143D02*
X22669500Y18638762D01*
X22542500Y18590381D01*
X22457834Y18590381D01*
X22330834Y18638762D01*
X22246167Y18735524D01*
X22203834Y18832286D01*
X22161500Y19025810D01*
X22161500Y19170952D01*
X22203834Y19364476D01*
X22246167Y19461238D01*
X22330834Y19558000D01*
X22457834Y19606381D01*
X22542500Y19606381D01*
X22669500Y19558000D01*
X22711834Y19509619D01*
X23008167Y19606381D02*
X23600834Y19606381D01*
X23219834Y18590381D01*
X26775834Y18814143D02*
X26733500Y18765762D01*
X26606500Y18717381D01*
X26521834Y18717381D01*
X26394834Y18765762D01*
X26310167Y18862524D01*
X26267834Y18959286D01*
X26225500Y19152810D01*
X26225500Y19297952D01*
X26267834Y19491476D01*
X26310167Y19588238D01*
X26394834Y19685000D01*
X26521834Y19733381D01*
X26606500Y19733381D01*
X26733500Y19685000D01*
X26775834Y19636619D01*
X27283834Y19297952D02*
X27199167Y19346333D01*
X27156834Y19394714D01*
X27114500Y19491476D01*
X27114500Y19539857D01*
X27156834Y19636619D01*
X27199167Y19685000D01*
X27283834Y19733381D01*
X27453167Y19733381D01*
X27537834Y19685000D01*
X27580167Y19636619D01*
X27622500Y19539857D01*
X27622500Y19491476D01*
X27580167Y19394714D01*
X27537834Y19346333D01*
X27453167Y19297952D01*
X27283834Y19297952D01*
X27199167Y19249571D01*
X27156834Y19201190D01*
X27114500Y19104429D01*
X27114500Y18910905D01*
X27156834Y18814143D01*
X27199167Y18765762D01*
X27283834Y18717381D01*
X27453167Y18717381D01*
X27537834Y18765762D01*
X27580167Y18814143D01*
X27622500Y18910905D01*
X27622500Y19104429D01*
X27580167Y19201190D01*
X27537834Y19249571D01*
X27453167Y19297952D01*
X22711834Y16909143D02*
X22669500Y16860762D01*
X22542500Y16812381D01*
X22457834Y16812381D01*
X22330834Y16860762D01*
X22246167Y16957524D01*
X22203834Y17054286D01*
X22161500Y17247810D01*
X22161500Y17392952D01*
X22203834Y17586476D01*
X22246167Y17683238D01*
X22330834Y17780000D01*
X22457834Y17828381D01*
X22542500Y17828381D01*
X22669500Y17780000D01*
X22711834Y17731619D01*
X23135167Y16812381D02*
X23304500Y16812381D01*
X23389167Y16860762D01*
X23431500Y16909143D01*
X23516167Y17054286D01*
X23558500Y17247810D01*
X23558500Y17634857D01*
X23516167Y17731619D01*
X23473834Y17780000D01*
X23389167Y17828381D01*
X23219834Y17828381D01*
X23135167Y17780000D01*
X23092834Y17731619D01*
X23050500Y17634857D01*
X23050500Y17392952D01*
X23092834Y17296190D01*
X23135167Y17247810D01*
X23219834Y17199429D01*
X23389167Y17199429D01*
X23473834Y17247810D01*
X23516167Y17296190D01*
X23558500Y17392952D01*
X15348857Y14414500D02*
X15397238Y14372166D01*
X15445619Y14245166D01*
X15445619Y14160500D01*
X15397238Y14033500D01*
X15300476Y13948833D01*
X15203714Y13906500D01*
X15010190Y13864166D01*
X14865048Y13864166D01*
X14671524Y13906500D01*
X14574762Y13948833D01*
X14478000Y14033500D01*
X14429619Y14160500D01*
X14429619Y14245166D01*
X14478000Y14372166D01*
X14526381Y14414500D01*
X15445619Y15261166D02*
X15445619Y14753166D01*
X15445619Y15007166D02*
X14429619Y15007166D01*
X14574762Y14922500D01*
X14671524Y14837833D01*
X14719905Y14753166D01*
X14429619Y15811500D02*
X14429619Y15896167D01*
X14478000Y15980833D01*
X14526381Y16023167D01*
X14623143Y16065500D01*
X14816667Y16107833D01*
X15058571Y16107833D01*
X15252095Y16065500D01*
X15348857Y16023167D01*
X15397238Y15980833D01*
X15445619Y15896167D01*
X15445619Y15811500D01*
X15397238Y15726833D01*
X15348857Y15684500D01*
X15252095Y15642167D01*
X15058571Y15599833D01*
X14816667Y15599833D01*
X14623143Y15642167D01*
X14526381Y15684500D01*
X14478000Y15726833D01*
X14429619Y15811500D01*
X13570857Y14414500D02*
X13619238Y14372166D01*
X13667619Y14245166D01*
X13667619Y14160500D01*
X13619238Y14033500D01*
X13522476Y13948833D01*
X13425714Y13906500D01*
X13232190Y13864166D01*
X13087048Y13864166D01*
X12893524Y13906500D01*
X12796762Y13948833D01*
X12700000Y14033500D01*
X12651619Y14160500D01*
X12651619Y14245166D01*
X12700000Y14372166D01*
X12748381Y14414500D01*
X13667619Y15261166D02*
X13667619Y14753166D01*
X13667619Y15007166D02*
X12651619Y15007166D01*
X12796762Y14922500D01*
X12893524Y14837833D01*
X12941905Y14753166D01*
X13667619Y16107833D02*
X13667619Y15599833D01*
X13667619Y15853833D02*
X12651619Y15853833D01*
X12796762Y15769167D01*
X12893524Y15684500D01*
X12941905Y15599833D01*
X5016500Y16147143D02*
X4974166Y16098762D01*
X4847166Y16050381D01*
X4762500Y16050381D01*
X4635500Y16098762D01*
X4550833Y16195524D01*
X4508500Y16292286D01*
X4466166Y16485810D01*
X4466166Y16630952D01*
X4508500Y16824476D01*
X4550833Y16921238D01*
X4635500Y17018000D01*
X4762500Y17066381D01*
X4847166Y17066381D01*
X4974166Y17018000D01*
X5016500Y16969619D01*
X5863166Y16050381D02*
X5355166Y16050381D01*
X5609166Y16050381D02*
X5609166Y17066381D01*
X5524500Y16921238D01*
X5439833Y16824476D01*
X5355166Y16776095D01*
X6201833Y16969619D02*
X6244167Y17018000D01*
X6328833Y17066381D01*
X6540500Y17066381D01*
X6625167Y17018000D01*
X6667500Y16969619D01*
X6709833Y16872857D01*
X6709833Y16776095D01*
X6667500Y16630952D01*
X6159500Y16050381D01*
X6709833Y16050381D01*
X2476500Y19195143D02*
X2434166Y19146762D01*
X2307166Y19098381D01*
X2222500Y19098381D01*
X2095500Y19146762D01*
X2010833Y19243524D01*
X1968500Y19340286D01*
X1926166Y19533810D01*
X1926166Y19678952D01*
X1968500Y19872476D01*
X2010833Y19969238D01*
X2095500Y20066000D01*
X2222500Y20114381D01*
X2307166Y20114381D01*
X2434166Y20066000D01*
X2476500Y20017619D01*
X3323166Y19098381D02*
X2815166Y19098381D01*
X3069166Y19098381D02*
X3069166Y20114381D01*
X2984500Y19969238D01*
X2899833Y19872476D01*
X2815166Y19824095D01*
X3619500Y20114381D02*
X4169833Y20114381D01*
X3873500Y19727333D01*
X4000500Y19727333D01*
X4085167Y19678952D01*
X4127500Y19630571D01*
X4169833Y19533810D01*
X4169833Y19291905D01*
X4127500Y19195143D01*
X4085167Y19146762D01*
X4000500Y19098381D01*
X3746500Y19098381D01*
X3661833Y19146762D01*
X3619500Y19195143D01*
D14*
X5738905Y14406619D02*
X5738905Y15406619D01*
X6119858Y15406619D01*
X6215096Y15359000D01*
X6262715Y15311381D01*
X6310334Y15216143D01*
X6310334Y15073286D01*
X6262715Y14978048D01*
X6215096Y14930429D01*
X6119858Y14882810D01*
X5738905Y14882810D01*
X6691286Y15311381D02*
X6738905Y15359000D01*
X6834143Y15406619D01*
X7072239Y15406619D01*
X7167477Y15359000D01*
X7215096Y15311381D01*
X7262715Y15216143D01*
X7262715Y15120905D01*
X7215096Y14978048D01*
X6643667Y14406619D01*
X7262715Y14406619D01*
X38004762Y5548381D02*
X37909524Y5596000D01*
X37814286Y5691238D01*
X37671429Y5834095D01*
X37576190Y5881714D01*
X37480952Y5881714D01*
X37528571Y5643619D02*
X37433333Y5691238D01*
X37338095Y5786476D01*
X37290476Y5976952D01*
X37290476Y6310286D01*
X37338095Y6500762D01*
X37433333Y6596000D01*
X37528571Y6643619D01*
X37719048Y6643619D01*
X37814286Y6596000D01*
X37909524Y6500762D01*
X37957143Y6310286D01*
X37957143Y5976952D01*
X37909524Y5786476D01*
X37814286Y5691238D01*
X37719048Y5643619D01*
X37528571Y5643619D01*
X38909524Y5643619D02*
X38338095Y5643619D01*
X38623809Y5643619D02*
X38623809Y6643619D01*
X38528571Y6500762D01*
X38433333Y6405524D01*
X38338095Y6357905D01*
D15*
X34395834Y1445381D02*
X34099500Y1929190D01*
X33887834Y1445381D02*
X33887834Y2461381D01*
X34226500Y2461381D01*
X34311167Y2413000D01*
X34353500Y2364619D01*
X34395834Y2267857D01*
X34395834Y2122714D01*
X34353500Y2025952D01*
X34311167Y1977571D01*
X34226500Y1929190D01*
X33887834Y1929190D01*
X35242500Y1445381D02*
X34734500Y1445381D01*
X34988500Y1445381D02*
X34988500Y2461381D01*
X34903834Y2316238D01*
X34819167Y2219476D01*
X34734500Y2171095D01*
X27537834Y10970381D02*
X27241500Y11454190D01*
X27029834Y10970381D02*
X27029834Y11986381D01*
X27368500Y11986381D01*
X27453167Y11938000D01*
X27495500Y11889619D01*
X27537834Y11792857D01*
X27537834Y11647714D01*
X27495500Y11550952D01*
X27453167Y11502571D01*
X27368500Y11454190D01*
X27029834Y11454190D01*
X27876500Y11889619D02*
X27918834Y11938000D01*
X28003500Y11986381D01*
X28215167Y11986381D01*
X28299834Y11938000D01*
X28342167Y11889619D01*
X28384500Y11792857D01*
X28384500Y11696095D01*
X28342167Y11550952D01*
X27834167Y10970381D01*
X28384500Y10970381D01*
X16361834Y18844381D02*
X16065500Y19328190D01*
X15853834Y18844381D02*
X15853834Y19860381D01*
X16192500Y19860381D01*
X16277167Y19812000D01*
X16319500Y19763619D01*
X16361834Y19666857D01*
X16361834Y19521714D01*
X16319500Y19424952D01*
X16277167Y19376571D01*
X16192500Y19328190D01*
X15853834Y19328190D01*
X16658167Y19860381D02*
X17208500Y19860381D01*
X16912167Y19473333D01*
X17039167Y19473333D01*
X17123834Y19424952D01*
X17166167Y19376571D01*
X17208500Y19279810D01*
X17208500Y19037905D01*
X17166167Y18941143D01*
X17123834Y18892762D01*
X17039167Y18844381D01*
X16785167Y18844381D01*
X16700500Y18892762D01*
X16658167Y18941143D01*
X16361834Y17066381D02*
X16065500Y17550190D01*
X15853834Y17066381D02*
X15853834Y18082381D01*
X16192500Y18082381D01*
X16277167Y18034000D01*
X16319500Y17985619D01*
X16361834Y17888857D01*
X16361834Y17743714D01*
X16319500Y17646952D01*
X16277167Y17598571D01*
X16192500Y17550190D01*
X15853834Y17550190D01*
X17123834Y17743714D02*
X17123834Y17066381D01*
X16912167Y18130762D02*
X16700500Y17405048D01*
X17250834Y17405048D01*
X11281834Y9954381D02*
X10985500Y10438190D01*
X10773834Y9954381D02*
X10773834Y10970381D01*
X11112500Y10970381D01*
X11197167Y10922000D01*
X11239500Y10873619D01*
X11281834Y10776857D01*
X11281834Y10631714D01*
X11239500Y10534952D01*
X11197167Y10486571D01*
X11112500Y10438190D01*
X10773834Y10438190D01*
X12086167Y10970381D02*
X11662834Y10970381D01*
X11620500Y10486571D01*
X11662834Y10534952D01*
X11747500Y10583333D01*
X11959167Y10583333D01*
X12043834Y10534952D01*
X12086167Y10486571D01*
X12128500Y10389810D01*
X12128500Y10147905D01*
X12086167Y10051143D01*
X12043834Y10002762D01*
X11959167Y9954381D01*
X11747500Y9954381D01*
X11662834Y10002762D01*
X11620500Y10051143D01*
X11281834Y16812381D02*
X10985500Y17296190D01*
X10773834Y16812381D02*
X10773834Y17828381D01*
X11112500Y17828381D01*
X11197167Y17780000D01*
X11239500Y17731619D01*
X11281834Y17634857D01*
X11281834Y17489714D01*
X11239500Y17392952D01*
X11197167Y17344571D01*
X11112500Y17296190D01*
X10773834Y17296190D01*
X12043834Y17828381D02*
X11874500Y17828381D01*
X11789834Y17780000D01*
X11747500Y17731619D01*
X11662834Y17586476D01*
X11620500Y17392952D01*
X11620500Y17005905D01*
X11662834Y16909143D01*
X11705167Y16860762D01*
X11789834Y16812381D01*
X11959167Y16812381D01*
X12043834Y16860762D01*
X12086167Y16909143D01*
X12128500Y17005905D01*
X12128500Y17247810D01*
X12086167Y17344571D01*
X12043834Y17392952D01*
X11959167Y17441333D01*
X11789834Y17441333D01*
X11705167Y17392952D01*
X11662834Y17344571D01*
X11620500Y17247810D01*
X27368500Y12845143D02*
X27326166Y12796762D01*
X27199166Y12748381D01*
X27114500Y12748381D01*
X26987500Y12796762D01*
X26902833Y12893524D01*
X26860500Y12990286D01*
X26818166Y13183810D01*
X26818166Y13328952D01*
X26860500Y13522476D01*
X26902833Y13619238D01*
X26987500Y13716000D01*
X27114500Y13764381D01*
X27199166Y13764381D01*
X27326166Y13716000D01*
X27368500Y13667619D01*
X28215166Y12748381D02*
X27707166Y12748381D01*
X27961166Y12748381D02*
X27961166Y13764381D01*
X27876500Y13619238D01*
X27791833Y13522476D01*
X27707166Y13474095D01*
X28977167Y13425714D02*
X28977167Y12748381D01*
X28765500Y13812762D02*
X28553833Y13087048D01*
X29104167Y13087048D01*
D14*
X19208809Y8278810D02*
X19208809Y7802619D01*
X18875476Y8802619D02*
X19208809Y8278810D01*
X19542143Y8802619D01*
X20399286Y7802619D02*
X19827857Y7802619D01*
X20113571Y7802619D02*
X20113571Y8802619D01*
X20018333Y8659762D01*
X19923095Y8564524D01*
X19827857Y8516905D01*
D15*
X9252857Y6286500D02*
X9301238Y6244166D01*
X9349619Y6117166D01*
X9349619Y6032500D01*
X9301238Y5905500D01*
X9204476Y5820833D01*
X9107714Y5778500D01*
X8914190Y5736166D01*
X8769048Y5736166D01*
X8575524Y5778500D01*
X8478762Y5820833D01*
X8382000Y5905500D01*
X8333619Y6032500D01*
X8333619Y6117166D01*
X8382000Y6244166D01*
X8430381Y6286500D01*
X9349619Y7133166D02*
X9349619Y6625166D01*
X9349619Y6879166D02*
X8333619Y6879166D01*
X8478762Y6794500D01*
X8575524Y6709833D01*
X8623905Y6625166D01*
X8333619Y7937500D02*
X8333619Y7514167D01*
X8817429Y7471833D01*
X8769048Y7514167D01*
X8720667Y7598833D01*
X8720667Y7810500D01*
X8769048Y7895167D01*
X8817429Y7937500D01*
X8914190Y7979833D01*
X9156095Y7979833D01*
X9252857Y7937500D01*
X9301238Y7895167D01*
X9349619Y7810500D01*
X9349619Y7598833D01*
X9301238Y7514167D01*
X9252857Y7471833D01*
X1121834Y2842381D02*
X825500Y3326190D01*
X613834Y2842381D02*
X613834Y3858381D01*
X952500Y3858381D01*
X1037167Y3810000D01*
X1079500Y3761619D01*
X1121834Y3664857D01*
X1121834Y3519714D01*
X1079500Y3422952D01*
X1037167Y3374571D01*
X952500Y3326190D01*
X613834Y3326190D01*
X1418167Y3858381D02*
X2010834Y3858381D01*
X1629834Y2842381D01*
M02*
