G04 #@! TF.FileFunction,Copper,L2,Bot,Signal*
%FSLAX46Y46*%
G04 Gerber Fmt 4.6, Leading zero omitted, Abs format (unit mm)*
G04 Created by KiCad (PCBNEW 4.0.1-stable) date 8/1/2016 6:35:50 PM*
%MOMM*%
G01*
G04 APERTURE LIST*
%ADD10C,0.100000*%
%ADD11C,1.016000*%
%ADD12R,2.540000X2.540000*%
%ADD13C,2.540000*%
%ADD14R,1.524000X1.524000*%
%ADD15C,1.524000*%
%ADD16R,1.300000X1.300000*%
%ADD17C,1.300000*%
%ADD18C,1.651000*%
%ADD19R,1.651000X1.651000*%
%ADD20C,0.600000*%
%ADD21C,0.250000*%
%ADD22C,0.152400*%
G04 APERTURE END LIST*
D10*
D11*
X19812000Y5080000D03*
X22098000Y13716000D03*
D12*
X41529000Y19177000D03*
D13*
X41529000Y14097000D03*
X41529000Y9017000D03*
X41529000Y3937000D03*
D14*
X6477000Y12827000D03*
D15*
X6477000Y10287000D03*
X6477000Y7747000D03*
X6477000Y5207000D03*
D16*
X28829000Y18161000D03*
D17*
X28829000Y16161000D03*
D18*
X31877000Y21717000D03*
X29337000Y21717000D03*
X26797000Y21717000D03*
X24257000Y21717000D03*
X21717000Y21717000D03*
X19177000Y21717000D03*
X16637000Y21717000D03*
X14097000Y21717000D03*
X11557000Y21717000D03*
X9017000Y21717000D03*
X6477000Y21717000D03*
X3937000Y21717000D03*
X1397000Y21717000D03*
X1397000Y1397000D03*
X3937000Y1397000D03*
X6477000Y1397000D03*
X9017000Y1397000D03*
X11557000Y1397000D03*
X14097000Y1397000D03*
X16637000Y1397000D03*
X19177000Y1397000D03*
X21717000Y1397000D03*
X24257000Y1397000D03*
X26797000Y1397000D03*
X29337000Y1397000D03*
X31877000Y1397000D03*
D14*
X1397000Y17907000D03*
D15*
X1397000Y15367000D03*
X1397000Y12827000D03*
X1397000Y10287000D03*
X1397000Y7747000D03*
X1397000Y5207000D03*
D19*
X31877000Y14097000D03*
D18*
X31877000Y11557000D03*
X31877000Y9017000D03*
D11*
X20828000Y13716000D03*
D20*
X33528000Y3556000D03*
X12954000Y20574000D03*
X12700000Y18796000D03*
X14986000Y14986000D03*
X4064000Y5080000D03*
X9144000Y9144000D03*
X10668000Y10668000D03*
X18034000Y14224000D03*
X9906000Y8382000D03*
X11430000Y9906000D03*
X16764000Y14224000D03*
X22352000Y6096000D03*
X24130000Y7874000D03*
X15748000Y15748000D03*
X19304000Y13970000D03*
X6350000Y15494000D03*
X8636000Y17780000D03*
X20574000Y11176000D03*
X4318000Y14732000D03*
X7874000Y14732000D03*
X21590000Y11176000D03*
X14986000Y9906000D03*
X19304000Y11176000D03*
D21*
X30226000Y20066000D02*
X31877000Y21717000D01*
X13462000Y20066000D02*
X30226000Y20066000D01*
X12954000Y20574000D02*
X13462000Y20066000D01*
X7747000Y7747000D02*
X6477000Y7747000D01*
X9144000Y9144000D02*
X7747000Y7747000D01*
X11430000Y10668000D02*
X10668000Y10668000D01*
X14478000Y13716000D02*
X11430000Y10668000D01*
X15240000Y13716000D02*
X14478000Y13716000D01*
X16510000Y14986000D02*
X15240000Y13716000D01*
X17272000Y14986000D02*
X16510000Y14986000D01*
X18034000Y14224000D02*
X17272000Y14986000D01*
X8128000Y6858000D02*
X6477000Y5207000D01*
X8382000Y6858000D02*
X8128000Y6858000D01*
X9906000Y8382000D02*
X8382000Y6858000D01*
X14732000Y13208000D02*
X11430000Y9906000D01*
X15748000Y13208000D02*
X14732000Y13208000D01*
X16764000Y14224000D02*
X15748000Y13208000D01*
X24130000Y7874000D02*
X22352000Y6096000D01*
X17526000Y15748000D02*
X15748000Y15748000D01*
X19304000Y13970000D02*
X17526000Y15748000D01*
X4064000Y15494000D02*
X3937000Y15367000D01*
X4064000Y15494000D02*
X4572000Y15494000D01*
X4572000Y15494000D02*
X6350000Y15494000D01*
X3937000Y15367000D02*
X1397000Y15367000D01*
X8636000Y11684000D02*
X8636000Y17780000D01*
X11176000Y9144000D02*
X8636000Y11684000D01*
X18542000Y9144000D02*
X11176000Y9144000D01*
X20574000Y11176000D02*
X18542000Y9144000D01*
X4318000Y14732000D02*
X2413000Y12827000D01*
X2413000Y12827000D02*
X1397000Y12827000D01*
X7874000Y11430000D02*
X7874000Y14732000D01*
X10668000Y8636000D02*
X7874000Y11430000D01*
X19050000Y8636000D02*
X10668000Y8636000D01*
X21590000Y11176000D02*
X19050000Y8636000D01*
X17780000Y9906000D02*
X14986000Y9906000D01*
X18034000Y9906000D02*
X17780000Y9906000D01*
X19304000Y11176000D02*
X18034000Y9906000D01*
D22*
G36*
X33959800Y16478436D02*
X33959800Y2616200D01*
X33096200Y2616200D01*
X33096200Y15240000D01*
X33090197Y15269646D01*
X33073132Y15294621D01*
X33047695Y15310989D01*
X33020000Y15316200D01*
X29293633Y15316200D01*
X29339282Y15399271D01*
X28829000Y15909553D01*
X28318718Y15399271D01*
X28364367Y15316200D01*
X23876000Y15316200D01*
X23846354Y15310197D01*
X23822118Y15293882D01*
X22806118Y14277882D01*
X22789401Y14252673D01*
X22783800Y14224000D01*
X22783800Y13284200D01*
X20142200Y13284200D01*
X20142200Y14147800D01*
X21082000Y14147800D01*
X21111646Y14153803D01*
X21135882Y14170118D01*
X23183461Y16217697D01*
X27831207Y16217697D01*
X27885462Y15831542D01*
X27928856Y15726780D01*
X28067271Y15650718D01*
X28577553Y16161000D01*
X29080447Y16161000D01*
X29590729Y15650718D01*
X29729144Y15726780D01*
X29826793Y16104303D01*
X29772538Y16490458D01*
X29729144Y16595220D01*
X29590729Y16671282D01*
X29080447Y16161000D01*
X28577553Y16161000D01*
X28067271Y16671282D01*
X27928856Y16595220D01*
X27831207Y16217697D01*
X23183461Y16217697D01*
X23888493Y16922729D01*
X28318718Y16922729D01*
X28829000Y16412447D01*
X29339282Y16922729D01*
X29263220Y17061144D01*
X28885697Y17158793D01*
X28499542Y17104538D01*
X28394780Y17061144D01*
X28318718Y16922729D01*
X23888493Y16922729D01*
X24161564Y17195800D01*
X33242436Y17195800D01*
X33959800Y16478436D01*
X33959800Y16478436D01*
G37*
X33959800Y16478436D02*
X33959800Y2616200D01*
X33096200Y2616200D01*
X33096200Y15240000D01*
X33090197Y15269646D01*
X33073132Y15294621D01*
X33047695Y15310989D01*
X33020000Y15316200D01*
X29293633Y15316200D01*
X29339282Y15399271D01*
X28829000Y15909553D01*
X28318718Y15399271D01*
X28364367Y15316200D01*
X23876000Y15316200D01*
X23846354Y15310197D01*
X23822118Y15293882D01*
X22806118Y14277882D01*
X22789401Y14252673D01*
X22783800Y14224000D01*
X22783800Y13284200D01*
X20142200Y13284200D01*
X20142200Y14147800D01*
X21082000Y14147800D01*
X21111646Y14153803D01*
X21135882Y14170118D01*
X23183461Y16217697D01*
X27831207Y16217697D01*
X27885462Y15831542D01*
X27928856Y15726780D01*
X28067271Y15650718D01*
X28577553Y16161000D01*
X29080447Y16161000D01*
X29590729Y15650718D01*
X29729144Y15726780D01*
X29826793Y16104303D01*
X29772538Y16490458D01*
X29729144Y16595220D01*
X29590729Y16671282D01*
X29080447Y16161000D01*
X28577553Y16161000D01*
X28067271Y16671282D01*
X27928856Y16595220D01*
X27831207Y16217697D01*
X23183461Y16217697D01*
X23888493Y16922729D01*
X28318718Y16922729D01*
X28829000Y16412447D01*
X29339282Y16922729D01*
X29263220Y17061144D01*
X28885697Y17158793D01*
X28499542Y17104538D01*
X28394780Y17061144D01*
X28318718Y16922729D01*
X23888493Y16922729D01*
X24161564Y17195800D01*
X33242436Y17195800D01*
X33959800Y16478436D01*
G36*
X30721300Y14357350D02*
X30803850Y14274800D01*
X31699200Y14274800D01*
X31699200Y14294800D01*
X32054800Y14294800D01*
X32054800Y14274800D01*
X32074800Y14274800D01*
X32074800Y13919200D01*
X32054800Y13919200D01*
X32054800Y13899200D01*
X31699200Y13899200D01*
X31699200Y13919200D01*
X30803850Y13919200D01*
X30721300Y13836650D01*
X30721300Y13205819D01*
X30771570Y13084457D01*
X30825827Y13030200D01*
X28448000Y13030200D01*
X28418354Y13024197D01*
X28394118Y13007882D01*
X19526436Y4140200D01*
X18872200Y4140200D01*
X18872200Y5511800D01*
X19558000Y5511800D01*
X19587646Y5517803D01*
X19611882Y5534118D01*
X22151882Y8074118D01*
X22168599Y8099327D01*
X22174200Y8128000D01*
X22174200Y11684000D01*
X22168197Y11713646D01*
X22151132Y11738621D01*
X22125695Y11754989D01*
X22098000Y11760200D01*
X16078200Y11760200D01*
X16078200Y12966292D01*
X16497708Y13385800D01*
X19735800Y13385800D01*
X19735800Y12192000D01*
X19741803Y12162354D01*
X19758868Y12137379D01*
X19784305Y12121011D01*
X19812000Y12115800D01*
X23368000Y12115800D01*
X23397646Y12121803D01*
X23422621Y12138868D01*
X23438989Y12164305D01*
X23444200Y12192000D01*
X23444200Y13938436D01*
X24161564Y14655800D01*
X30721300Y14655800D01*
X30721300Y14357350D01*
X30721300Y14357350D01*
G37*
X30721300Y14357350D02*
X30803850Y14274800D01*
X31699200Y14274800D01*
X31699200Y14294800D01*
X32054800Y14294800D01*
X32054800Y14274800D01*
X32074800Y14274800D01*
X32074800Y13919200D01*
X32054800Y13919200D01*
X32054800Y13899200D01*
X31699200Y13899200D01*
X31699200Y13919200D01*
X30803850Y13919200D01*
X30721300Y13836650D01*
X30721300Y13205819D01*
X30771570Y13084457D01*
X30825827Y13030200D01*
X28448000Y13030200D01*
X28418354Y13024197D01*
X28394118Y13007882D01*
X19526436Y4140200D01*
X18872200Y4140200D01*
X18872200Y5511800D01*
X19558000Y5511800D01*
X19587646Y5517803D01*
X19611882Y5534118D01*
X22151882Y8074118D01*
X22168599Y8099327D01*
X22174200Y8128000D01*
X22174200Y11684000D01*
X22168197Y11713646D01*
X22151132Y11738621D01*
X22125695Y11754989D01*
X22098000Y11760200D01*
X16078200Y11760200D01*
X16078200Y12966292D01*
X16497708Y13385800D01*
X19735800Y13385800D01*
X19735800Y12192000D01*
X19741803Y12162354D01*
X19758868Y12137379D01*
X19784305Y12121011D01*
X19812000Y12115800D01*
X23368000Y12115800D01*
X23397646Y12121803D01*
X23422621Y12138868D01*
X23438989Y12164305D01*
X23444200Y12192000D01*
X23444200Y13938436D01*
X24161564Y14655800D01*
X30721300Y14655800D01*
X30721300Y14357350D01*
G36*
X5519117Y22423433D02*
X5586701Y22355849D01*
X5430107Y22257839D01*
X5302827Y21816042D01*
X5354304Y21359166D01*
X5430107Y21176161D01*
X5586702Y21078150D01*
X6225553Y21717000D01*
X6211410Y21731142D01*
X6462858Y21982590D01*
X6477000Y21968447D01*
X6491142Y21982590D01*
X6742590Y21731142D01*
X6728447Y21717000D01*
X7367298Y21078150D01*
X7523893Y21176161D01*
X7651173Y21617958D01*
X7599696Y22074834D01*
X7523893Y22257839D01*
X7367299Y22355849D01*
X7434883Y22423433D01*
X7328516Y22529800D01*
X7334436Y22529800D01*
X7797800Y22066436D01*
X7797800Y20320000D01*
X7803803Y20290354D01*
X7820868Y20265379D01*
X7846305Y20249011D01*
X7874000Y20243800D01*
X12464943Y20243800D01*
X12625368Y20083095D01*
X12838245Y19994701D01*
X12917604Y19994632D01*
X15417800Y17494436D01*
X15417800Y16237057D01*
X15257095Y16076632D01*
X15168701Y15863755D01*
X15168500Y15633256D01*
X15256522Y15420225D01*
X15417800Y15258666D01*
X15417800Y14554200D01*
X9040400Y14554200D01*
X9040400Y17365014D01*
X9126905Y17451368D01*
X9215299Y17664245D01*
X9215500Y17894744D01*
X9127478Y18107775D01*
X8964632Y18270905D01*
X8751755Y18359299D01*
X8521256Y18359500D01*
X8308225Y18271478D01*
X8145095Y18108632D01*
X8056701Y17895755D01*
X8056500Y17665256D01*
X8144522Y17452225D01*
X8231600Y17364995D01*
X8231600Y15193886D01*
X8202632Y15222905D01*
X7989755Y15311299D01*
X7759256Y15311500D01*
X7546225Y15223478D01*
X7383095Y15060632D01*
X7294701Y14847755D01*
X7294500Y14617256D01*
X7382522Y14404225D01*
X7469600Y14316995D01*
X7469600Y13825373D01*
X7426043Y13868930D01*
X7304681Y13919200D01*
X6737350Y13919200D01*
X6654800Y13836650D01*
X6654800Y13004800D01*
X6674800Y13004800D01*
X6674800Y12878564D01*
X6425436Y12629200D01*
X6299200Y12629200D01*
X6299200Y12649200D01*
X5467350Y12649200D01*
X5384800Y12566650D01*
X5384800Y11999319D01*
X5435070Y11877957D01*
X5527957Y11785070D01*
X5565680Y11769444D01*
X5288860Y11492624D01*
X4791922Y11244155D01*
X4768091Y11225528D01*
X4753384Y11199096D01*
X4749800Y11176000D01*
X4749800Y2362200D01*
X4493714Y2362200D01*
X4157742Y2501708D01*
X3718186Y2502091D01*
X3379623Y2362200D01*
X2362200Y2362200D01*
X2362200Y2762436D01*
X3609882Y4010118D01*
X3626599Y4035327D01*
X3632200Y4064000D01*
X3632200Y8890000D01*
X3626197Y8919646D01*
X3609132Y8944621D01*
X3583695Y8960989D01*
X3556000Y8966200D01*
X584200Y8966200D01*
X584200Y9443138D01*
X804585Y9443138D01*
X894684Y9293130D01*
X1313258Y9176556D01*
X1744581Y9229037D01*
X1899316Y9293130D01*
X1989415Y9443138D01*
X1397000Y10035553D01*
X804585Y9443138D01*
X584200Y9443138D01*
X584200Y9725647D01*
X1145553Y10287000D01*
X1648447Y10287000D01*
X2240862Y9694585D01*
X2390870Y9784684D01*
X2507444Y10203258D01*
X2454963Y10634581D01*
X2390870Y10789316D01*
X2240862Y10879415D01*
X1648447Y10287000D01*
X1145553Y10287000D01*
X584200Y10848353D01*
X584200Y11130862D01*
X804585Y11130862D01*
X1397000Y10538447D01*
X1989415Y11130862D01*
X1899316Y11280870D01*
X1480742Y11397444D01*
X1049419Y11344963D01*
X894684Y11280870D01*
X804585Y11130862D01*
X584200Y11130862D01*
X584200Y11607800D01*
X4064000Y11607800D01*
X4093646Y11613803D01*
X4117882Y11630118D01*
X4625882Y12138118D01*
X4642599Y12163327D01*
X4648200Y12192000D01*
X4648200Y13654681D01*
X5384800Y13654681D01*
X5384800Y13087350D01*
X5467350Y13004800D01*
X6299200Y13004800D01*
X6299200Y13836650D01*
X6216650Y13919200D01*
X5649319Y13919200D01*
X5527957Y13868930D01*
X5435070Y13776043D01*
X5384800Y13654681D01*
X4648200Y13654681D01*
X4648200Y14242943D01*
X4808905Y14403368D01*
X4897299Y14616245D01*
X4897500Y14846744D01*
X4809478Y15059775D01*
X4779705Y15089600D01*
X5935014Y15089600D01*
X6021368Y15003095D01*
X6234245Y14914701D01*
X6464744Y14914500D01*
X6677775Y15002522D01*
X6840905Y15165368D01*
X6929299Y15378245D01*
X6929500Y15608744D01*
X6841478Y15821775D01*
X6678632Y15984905D01*
X6465755Y16073299D01*
X6235256Y16073500D01*
X6022225Y15985478D01*
X5934995Y15898400D01*
X5338164Y15898400D01*
X5895882Y16456118D01*
X5912599Y16481327D01*
X5918200Y16510000D01*
X5918200Y20066000D01*
X5912197Y20095646D01*
X5895882Y20119882D01*
X5189062Y20826702D01*
X5838150Y20826702D01*
X5936161Y20670107D01*
X6377958Y20542827D01*
X6834834Y20594304D01*
X7017839Y20670107D01*
X7115850Y20826702D01*
X6477000Y21465553D01*
X5838150Y20826702D01*
X5189062Y20826702D01*
X5156200Y20859564D01*
X5156200Y22066436D01*
X5619564Y22529800D01*
X5625484Y22529800D01*
X5519117Y22423433D01*
X5519117Y22423433D01*
G37*
X5519117Y22423433D02*
X5586701Y22355849D01*
X5430107Y22257839D01*
X5302827Y21816042D01*
X5354304Y21359166D01*
X5430107Y21176161D01*
X5586702Y21078150D01*
X6225553Y21717000D01*
X6211410Y21731142D01*
X6462858Y21982590D01*
X6477000Y21968447D01*
X6491142Y21982590D01*
X6742590Y21731142D01*
X6728447Y21717000D01*
X7367298Y21078150D01*
X7523893Y21176161D01*
X7651173Y21617958D01*
X7599696Y22074834D01*
X7523893Y22257839D01*
X7367299Y22355849D01*
X7434883Y22423433D01*
X7328516Y22529800D01*
X7334436Y22529800D01*
X7797800Y22066436D01*
X7797800Y20320000D01*
X7803803Y20290354D01*
X7820868Y20265379D01*
X7846305Y20249011D01*
X7874000Y20243800D01*
X12464943Y20243800D01*
X12625368Y20083095D01*
X12838245Y19994701D01*
X12917604Y19994632D01*
X15417800Y17494436D01*
X15417800Y16237057D01*
X15257095Y16076632D01*
X15168701Y15863755D01*
X15168500Y15633256D01*
X15256522Y15420225D01*
X15417800Y15258666D01*
X15417800Y14554200D01*
X9040400Y14554200D01*
X9040400Y17365014D01*
X9126905Y17451368D01*
X9215299Y17664245D01*
X9215500Y17894744D01*
X9127478Y18107775D01*
X8964632Y18270905D01*
X8751755Y18359299D01*
X8521256Y18359500D01*
X8308225Y18271478D01*
X8145095Y18108632D01*
X8056701Y17895755D01*
X8056500Y17665256D01*
X8144522Y17452225D01*
X8231600Y17364995D01*
X8231600Y15193886D01*
X8202632Y15222905D01*
X7989755Y15311299D01*
X7759256Y15311500D01*
X7546225Y15223478D01*
X7383095Y15060632D01*
X7294701Y14847755D01*
X7294500Y14617256D01*
X7382522Y14404225D01*
X7469600Y14316995D01*
X7469600Y13825373D01*
X7426043Y13868930D01*
X7304681Y13919200D01*
X6737350Y13919200D01*
X6654800Y13836650D01*
X6654800Y13004800D01*
X6674800Y13004800D01*
X6674800Y12878564D01*
X6425436Y12629200D01*
X6299200Y12629200D01*
X6299200Y12649200D01*
X5467350Y12649200D01*
X5384800Y12566650D01*
X5384800Y11999319D01*
X5435070Y11877957D01*
X5527957Y11785070D01*
X5565680Y11769444D01*
X5288860Y11492624D01*
X4791922Y11244155D01*
X4768091Y11225528D01*
X4753384Y11199096D01*
X4749800Y11176000D01*
X4749800Y2362200D01*
X4493714Y2362200D01*
X4157742Y2501708D01*
X3718186Y2502091D01*
X3379623Y2362200D01*
X2362200Y2362200D01*
X2362200Y2762436D01*
X3609882Y4010118D01*
X3626599Y4035327D01*
X3632200Y4064000D01*
X3632200Y8890000D01*
X3626197Y8919646D01*
X3609132Y8944621D01*
X3583695Y8960989D01*
X3556000Y8966200D01*
X584200Y8966200D01*
X584200Y9443138D01*
X804585Y9443138D01*
X894684Y9293130D01*
X1313258Y9176556D01*
X1744581Y9229037D01*
X1899316Y9293130D01*
X1989415Y9443138D01*
X1397000Y10035553D01*
X804585Y9443138D01*
X584200Y9443138D01*
X584200Y9725647D01*
X1145553Y10287000D01*
X1648447Y10287000D01*
X2240862Y9694585D01*
X2390870Y9784684D01*
X2507444Y10203258D01*
X2454963Y10634581D01*
X2390870Y10789316D01*
X2240862Y10879415D01*
X1648447Y10287000D01*
X1145553Y10287000D01*
X584200Y10848353D01*
X584200Y11130862D01*
X804585Y11130862D01*
X1397000Y10538447D01*
X1989415Y11130862D01*
X1899316Y11280870D01*
X1480742Y11397444D01*
X1049419Y11344963D01*
X894684Y11280870D01*
X804585Y11130862D01*
X584200Y11130862D01*
X584200Y11607800D01*
X4064000Y11607800D01*
X4093646Y11613803D01*
X4117882Y11630118D01*
X4625882Y12138118D01*
X4642599Y12163327D01*
X4648200Y12192000D01*
X4648200Y13654681D01*
X5384800Y13654681D01*
X5384800Y13087350D01*
X5467350Y13004800D01*
X6299200Y13004800D01*
X6299200Y13836650D01*
X6216650Y13919200D01*
X5649319Y13919200D01*
X5527957Y13868930D01*
X5435070Y13776043D01*
X5384800Y13654681D01*
X4648200Y13654681D01*
X4648200Y14242943D01*
X4808905Y14403368D01*
X4897299Y14616245D01*
X4897500Y14846744D01*
X4809478Y15059775D01*
X4779705Y15089600D01*
X5935014Y15089600D01*
X6021368Y15003095D01*
X6234245Y14914701D01*
X6464744Y14914500D01*
X6677775Y15002522D01*
X6840905Y15165368D01*
X6929299Y15378245D01*
X6929500Y15608744D01*
X6841478Y15821775D01*
X6678632Y15984905D01*
X6465755Y16073299D01*
X6235256Y16073500D01*
X6022225Y15985478D01*
X5934995Y15898400D01*
X5338164Y15898400D01*
X5895882Y16456118D01*
X5912599Y16481327D01*
X5918200Y16510000D01*
X5918200Y20066000D01*
X5912197Y20095646D01*
X5895882Y20119882D01*
X5189062Y20826702D01*
X5838150Y20826702D01*
X5936161Y20670107D01*
X6377958Y20542827D01*
X6834834Y20594304D01*
X7017839Y20670107D01*
X7115850Y20826702D01*
X6477000Y21465553D01*
X5838150Y20826702D01*
X5189062Y20826702D01*
X5156200Y20859564D01*
X5156200Y22066436D01*
X5619564Y22529800D01*
X5625484Y22529800D01*
X5519117Y22423433D01*
M02*
